<?xml version="1.0" standalone="no"?><!DOCTYPE svg PUBLIC "-//W3C//DTD SVG 1.1//EN" "http://www.w3.org/Graphics/SVG/1.1/DTD/svg11.dtd"><svg t="1575959921940" class="icon" viewBox="0 0 1024 1024" version="1.1" xmlns="http://www.w3.org/2000/svg" p-id="4794" xmlns:xlink="http://www.w3.org/1999/xlink" width="64" height="64"><defs><style type="text/css"></style></defs><path d="M304.05078125 118.953125c51.24023438 0 97.55859375 20.7421875 131.04492188 54.31640625 0.3515625 0.43945313 0.79101563 0.79101563 1.14257812 1.23046875 32.87109375 33.3984375 53.17382813 79.27734375 53.17382812 129.81445313v164.97070312c0 11.25-9.140625 20.390625-20.390625 20.390625H304.05078125c-51.15234375 0-97.47070313-20.7421875-130.95703125-54.31640625v-0.08789063l-0.08789063 0.08789063c-33.57421875-33.57421875-54.31640625-79.89257813-54.31640625-131.04492188 0-51.15234375 20.7421875-97.55859375 54.31640625-131.04492187 33.57421875-33.57421875 79.89257813-54.31640625 131.04492188-54.31640625z m358.76953125 455.80078125c-11.25 0-20.47851563-9.140625-20.47851563-20.47851563 0-11.25 9.140625-20.390625 20.47851563-20.39062499h56.25c51.24023438 0 97.55859375 20.7421875 131.04492188 54.31640624 0.3515625 0.43945313 0.79101563 0.79101563 1.14257812 1.23046875 32.78320313 33.3984375 53.0859375 79.27734375 53.0859375 129.81445313 0 51.15234375-20.7421875 97.3828125-54.31640625 130.95703125l-0.08789063 0.08789063c-33.57421875 33.48632813-79.8046875 54.22851563-130.95703124 54.22851562s-97.3828125-20.7421875-130.95703126-54.31640625l-0.08789062-0.08789063-0.08789062 0.08789063c-33.57421875-33.57421875-54.31640625-79.89257813-54.31640625-131.04492188V554.27539063c0-11.25 9.140625-20.390625 20.390625-20.390625 11.25 0 20.47851563 9.140625 20.47851562 20.390625v164.97070312c0 39.90234375 16.171875 76.02539063 42.27539063 102.21679688v0.08789062c26.10351563 26.10351563 62.2265625 42.1875 102.21679687 42.1875 39.90234375 0 76.11328125-16.171875 102.21679688-42.1875 26.10351563-26.10351563 42.1875-62.31445313 42.18749999-102.21679688 0-39.46289063-15.73242188-75.14648438-41.22070312-101.24999999l-1.0546875-0.96679688c-26.10351563-26.10351563-62.2265625-42.27539063-102.21679688-42.27539062h-55.98632812zM435.09570312 850.37890625c-33.57421875 33.57421875-79.8046875 54.31640625-130.95703124 54.31640625-50.53710938 0-96.41601563-20.30273438-129.81445313-53.17382813-0.43945313-0.3515625-0.79101563-0.79101563-1.23046875-1.14257812-33.57421875-33.57421875-54.31640625-79.89257813-54.31640625-131.04492188 0-51.15234375 20.7421875-97.55859375 54.31640625-131.13281249 33.57421875-33.57421875 79.89257813-54.31640625 131.04492188-54.31640626h164.97070312c11.33789063 0 20.390625 9.140625 20.390625 20.390625v164.97070313c0 51.15234375-20.7421875 97.3828125-54.31640625 130.95703125l-0.08789063 0.17578125z m152.84179688-677.19726563c33.57421875-33.57421875 79.98046875-54.31640625 131.1328125-54.31640625 51.24023438 0 97.55859375 20.7421875 131.04492188 54.31640625l-0.08789063 0.08789063 0.08789062 0.08789062c33.57421875 33.48632813 54.31640625 79.8046875 54.31640625 130.95703125s-20.7421875 97.3828125-54.31640625 130.95703125l-0.08789062 0.08789063c-33.57421875 33.57421875-79.8046875 54.31640625-130.95703125 54.31640625H554.09960938c-11.25 0-20.390625-9.140625-20.390625-20.390625V304.31445312c0-51.15234375 20.7421875-97.55859375 54.22851562-131.13281249z m0 0" p-id="4795" fill="#ffffff"></path></svg>