<?xml version="1.0" standalone="no"?><!DOCTYPE svg PUBLIC "-//W3C//DTD SVG 1.1//EN" "http://www.w3.org/Graphics/SVG/1.1/DTD/svg11.dtd"><svg t="1575961289275" class="icon" viewBox="0 0 1024 1024" version="1.1" xmlns="http://www.w3.org/2000/svg" p-id="7052" width="128" height="128" xmlns:xlink="http://www.w3.org/1999/xlink"><defs><style type="text/css"></style></defs><path d="M930.368 428.437333H896V426.666667H512v170.666666h241.130667c-35.178667 99.349333-129.706667 170.666667-241.130667 170.666667-141.376 0-256-114.624-256-256s114.624-256 256-256c65.258667 0 124.629333 24.618667 169.834667 64.832l120.682666-120.682667C726.314667 129.130667 624.384 85.333333 512 85.333333 276.373333 85.333333 85.333333 276.373333 85.333333 512s191.04 426.666667 426.666667 426.666667 426.666667-191.04 426.666667-426.666667c0-28.608-2.944-56.533333-8.298667-83.562667z" fill="#FFC107" p-id="7053"></path><path d="M134.528 313.408l140.181333 102.805333C312.64 322.304 404.501333 256 512 256c65.258667 0 124.629333 24.618667 169.834667 64.832l120.682666-120.682667C726.314667 129.130667 624.384 85.333333 512 85.333333 348.117333 85.333333 205.994667 177.856 134.528 313.408z" fill="#FF3D00" p-id="7054"></path><path d="M512 938.666667c110.208 0 210.346667-42.176 286.058667-110.762667l-132.053334-111.744A254.08 254.08 0 0 1 512 768c-110.976 0-205.205333-70.762667-240.704-169.514667l-139.136 107.2C202.773333 843.861333 346.176 938.666667 512 938.666667z" fill="#4CAF50" p-id="7055"></path><path d="M930.368 428.437333H896V426.666667H512v170.666666h241.130667a256.853333 256.853333 0 0 1-87.189334 118.848l0.064-0.042666 132.053334 111.744C788.714667 836.373333 938.666667 725.333333 938.666667 512c0-28.608-2.944-56.533333-8.298667-83.562667z" fill="#1976D2" p-id="7056"></path></svg>