<?xml version="1.0" standalone="no"?><!DOCTYPE svg PUBLIC "-//W3C//DTD SVG 1.1//EN" "http://www.w3.org/Graphics/SVG/1.1/DTD/svg11.dtd"><svg t="1709174584839" class="icon" viewBox="0 0 1024 1024" version="1.1" xmlns="http://www.w3.org/2000/svg" p-id="4214" width="32" height="32" xmlns:xlink="http://www.w3.org/1999/xlink"><path d="M510.285714 0q137.142857-1.142857 257.714286 68.571429 132.571429 76.571429 201.142857 212.571429l-424-22.285714q-91.428571-5.142857-168 42.571429t-105.714286 131.142857l-157.714286-242.285714q73.142857-90.857143 177.714286-140.285714t218.857143-50zm-426.857143 231.428571l192.571429 378.857143q41.142857 81.714286 120.571429 124t167.428571 25.714286l-131.428571 257.714286q-121.142857-18.857143-220-90t-155.714286-180.571429-56.857143-235.142857q0-152.571429 83.428571-280.571429zm906.285714 96.571429q33.142857 85.714286 34 177.428571t-27.714286 174.857143-87.428571 155.428571-140.571429 119.714286q-131.428571 76-284.571429 68l231.428571-356q50.285714-74.857143 47.142857-166t-60.857143-158.571429zm-477.714286 11.428571q71.428571 0 122 50.571429t50.571429 122-50.571429 122-122 50.571429-122-50.571429-50.571429-122 50.571429-122 122-50.571429z" p-id="4215" fill="#707070"></path></svg>