<?xml version="1.0" standalone="no"?><!DOCTYPE svg PUBLIC "-//W3C//DTD SVG 1.1//EN" "http://www.w3.org/Graphics/SVG/1.1/DTD/svg11.dtd"><svg t="1586509789148" class="icon" viewBox="0 0 1024 1024" version="1.1" xmlns="http://www.w3.org/2000/svg" p-id="2665" width="400" height="400" xmlns:xlink="http://www.w3.org/1999/xlink"><defs><style type="text/css"></style></defs><path d="M455.8336 506.82368c15.28832-25.344 61.1584-45.6192 93.42464 4.1984 23.82848 33.78688 64.49152 64.9472 64.49152 64.9472s30.67392 23.74656 11.16672 69.25824c-19.59936 45.56288-90.9568 21.8624-90.9568 21.8624s-26.28096-8.23808-56.96512-1.47968c-30.4128 6.58432-56.832 3.97312-56.832 3.97312h-0.30208c-3.4816-0.03072-35.98336-1.4848-45.57824-43.79648-10.20416-44.73344 35.59936-69.20192 39.0144-73.34912 3.4816-4.21376 27.29472-20.3776 42.53184-45.6192z m14.89408 25.7536v29.98784h-24.7296s-24.76032 1.8944-33.39264 29.73184c-3.072 18.50368 2.67264 29.37856 3.62496 31.83616 1.152 2.26816 9.00096 15.7696 29.07648 19.65568h46.3616v-110.96064l-20.9408-0.256z m54.00576 32.26624l-21.70368 0.31744v58.4704s1.00352 14.6688 21.7088 19.87072h53.41696v-78.336h-23.0144V624.128h-22.016l-0.19968-0.03584c-1.16736-0.2304-7.06048-1.6384-8.192-6.62528v-52.62848z m-54.40512 15.5648v45.2608H451.6352s-12.98944-0.60416-16.9472-15.54944c-2.00704-6.59456 0.28672-14.12096 1.24928-17.152 1.09056-3.04128 5.36064-9.82016 14.4384-12.55936h19.95776z m143.42144-133.504c31.55968 0 39.96672 30.39232 39.96672 40.448 0 10.15808 4.26496 53.30432-34.76992 54.13376-39.19872 0.768-40.79616-26.19392-40.79616-45.62432 0-20.30592 4.25472-48.95744 35.59936-48.95744z m-227.5328-23.51616c22.97856-2.05312 39.8848 22.74816 41.60512 37.03808 1.14176 9.29792 6.00064 51.44064-29.73696 59.136-35.58912 7.5264-48.88576-33.28-45.056-52.4288 0 0 4.27008-41.3696 33.19296-43.74528z m133.26848-22.05184c2.23744-19.3024 25.5232-48.97792 44.22144-44.60544 18.70336 4.1472 35.6096 28.56448 32.24064 49.65376-3.2768 21.10976-20.33152 48.98816-46.68416 45.5168-26.28096-3.2768-32.26624-26.97216-29.77792-50.56512zM464.34304 348.16c19.69152 0 35.6864 22.40512 35.6864 50.23744 0 27.7504-15.99488 50.2272-35.6864 50.2272-19.6608 0-35.6864-22.4768-35.6864-50.2272 0-27.83232 16.0256-50.23744 35.6864-50.23744z" fill="#2932E1" p-id="2666"></path><path d="M87.12704 496.57344c1.37728-0.04096 56.46848-1.42336 58.90048 43.5712 0 0 2.84672 29.83936-20.0192 41.68704 0 0 27.10528 10.36288 25.856 40.1408 0.09216 1.00352 3.6864 44.73344-53.41184 44.8512H0V496.56832z m745.27744 5.6576v24.6784h-59.04896l-5.18144 15.2832h60.01664v108.8512s1.1776 13.96224-12.3904 14.73536l-1.2032 0.03584h-142.39744v-123.6224h60.032l6.51264-15.00672h-70.51264l0.24576-24.95488h163.92704z m123.01824-11.7504v12.40576h64.39424v20.48512h-141.75232v142.23872h-26.63936V502.22592h73.96864v-11.74528h30.0288zM169.0368 542.3616l76.35456 0.20992c36.28544 4.98688 40.99584 35.03616 40.99584 35.03616v87.81312h-96.512c-20.8384-3.79904-27.8016-19.4304-28.70784-21.92384-0.8192-2.31936-2.59584-8.86272-1.33632-22.15424 7.60832-28.04224 31.48288-30.26432 31.48288-30.26432h60.6208v-9.07776c0-10.07616-15.9232-13.89568-15.9232-13.89568H169.0368v-25.74336z m849.7664 54.4256v14.8736l-48.4864 27.63264s7.14752 4.49024 15.29856 5.92896l1.024 0.15872h32.16384v18.20672h-42.53184s-16.44544-3.2-24.99584-10.9056c0 0-19.65568 9.7792-30.83776 12.36992l-0.94208 0.2048h-37.57056v-18.26304h27.6992s12.98944-4.16256 16.98304-7.5264l0.4352-0.39936-41.38496-23.69536v-18.5856h133.1456zM339.3536 542.45888v122.57792h-35.78368v-122.57792h35.7888z m461.2352 72.2432H701.9008v28.8h94.5152c2.27328 0 3.91168-3.49184 4.1472-4.02944l0.03072-0.07168v-24.704z m-548.6592 0.18432h-47.75936s-6.48704 1.82784-10.38848 9.47712c-1.73568 3.6864-0.32256 7.85408 0.18432 8.73984 0.41472 1.11104 2.56512 5.46816 9.25184 8.07936h48.7168v-26.29632z m-155.78112-16.3328H37.44256v36.7104h58.9568c10.46528-1.65888 14.15168-8.0896 14.15168-8.0896 5.12-6.8608 2.7136-16.36864 2.7136-16.36864-3.97312-9.86624-15.1552-11.87328-15.1552-11.87328l-1.96096-0.37888z m875.43296 16.3328h-45.19424l21.67296 12.33408 23.52128-12.33408z m-171.15136-51.05664h-98.5344v26.96704h98.5344v-26.96704z m202.02496-36.64896v9.48224h19.0976v18.53952h-19.0976v21.69344s-1.51552 12.20096-12.98432 12.98944l-1.1776 0.04096h-89.73824v-34.72384h-16.26624l-0.3584-18.5344h16.62464v-9.09824h24.75008v9.09312h53.20192v-9.48224h25.94816z m-25.94816 27.62752h-53.62176v17.12128h48.3328c2.78528 0 4.95616-3.52768 5.25312-4.02944l0.03584-0.06144v-13.0304z m-865.95584-15.7696c-3.74784-9.1648-14.8224-9.27744-16.2304-9.25184H37.43744v35.34336h56.85248c10.5984-1.6896 14.58688-8.81152 14.58688-8.81152 4.11648-7.08096 1.66912-17.27488 1.66912-17.27488z m228.80256-41.35424v31.16544h-35.78368v-31.16544h35.7888z" fill="#E10602" p-id="2667"></path></svg>