<?xml version="1.0" standalone="no"?><!DOCTYPE svg PUBLIC "-//W3C//DTD SVG 1.1//EN" "http://www.w3.org/Graphics/SVG/1.1/DTD/svg11.dtd"><svg t="1575962396329" class="icon" viewBox="0 0 1024 1024" version="1.1" xmlns="http://www.w3.org/2000/svg" p-id="7829" xmlns:xlink="http://www.w3.org/1999/xlink" width="128" height="128"><defs><style type="text/css"></style></defs><path d="M377.126627 0.939327a84.689326 84.689326 0 0 1 59.443413 13.283483 144.499477 144.499477 0 0 1 55.040567 75.955584 213.996687 213.996687 0 0 1-2.935896 145.013109 146.11432 146.11432 0 0 1-41.830032 59.737202 85.71659 85.71659 0 0 1-110.81461 3.081793 156.534854 156.534854 0 0 1-50.637721-77.423532 212.162002 212.162002 0 0 1 4.403845-136.500208 143.031529 143.031529 0 0 1 48.435299-66.92905A96.650757 96.650757 0 0 1 377.126627 0.939327z m302.355385 23.190386a67.589577 67.589577 0 0 1 42.564505 7.338742 136.866945 136.866945 0 0 1 46.967352 38.602344 160.204226 160.204226 0 0 1 33.758814 77.569428 132.097362 132.097362 0 0 1-5.871793 58.709938 228.895014 228.895014 0 0 1-30.088444 64.286944 150.002534 150.002534 0 0 1-45.500403 42.858295 101.715129 101.715129 0 0 1-56.507516 13.430378 106.337817 106.337817 0 0 1-66.048681-26.126283 114.850718 114.850718 0 0 1-33.024341-62.599152 257.295667 257.295667 0 0 1-1.467948-75.076213 160.131278 160.131278 0 0 1 24.21765-61.790732 212.822528 212.822528 0 0 1 44.766928-52.839145 105.164657 105.164657 0 0 1 46.233877-23.997807z m-543.799409 212.088055a99.365812 99.365812 0 0 1 64.580733 11.156007 163.506859 163.506859 0 0 1 65.314207 70.157737 115.217455 115.217455 0 0 1 11.741588 37.941818 268.009991 268.009991 0 0 1-7.337743 99.585654 126.666253 126.666253 0 0 1-35.225763 57.82857 125.272252 125.272252 0 0 1-79.992691 28.548547 100.173233 100.173233 0 0 1-66.047682-23.997807 158.296592 158.296592 0 0 1-46.233877-79.038375 148.241796 148.241796 0 0 1-3.669371-62.158468 216.199109 216.199109 0 0 1 35.224764-98.2656 94.742124 94.742124 0 0 1 61.645835-41.757084z m705.984215 76.32332a128.941623 128.941623 0 0 1 77.056795 12.990693 120.133933 120.133933 0 0 1 49.904247 51.370197 143.472213 143.472213 0 0 1 17.612382 57.095095 370.972226 370.972226 0 0 1-4.402846 85.568697 127.179885 127.179885 0 0 1-24.952123 54.747777 90.413226 90.413226 0 0 1-47.701825 30.895865 169.524548 169.524548 0 0 1-58.709939 3.742319 122.18946 122.18946 0 0 1-64.580733-23.043491 100.24718 100.24718 0 0 1-33.757815-49.829301 265.881516 265.881516 0 0 1-8.072217-79.918744 226.032065 226.032065 0 0 1 16.144434-82.413956 102.081866 102.081866 0 0 1 41.097557-47.921668 103.69571 103.69571 0 0 1 40.363082-13.576274zM490.878132 415.944007a145.013109 145.013109 0 0 1 77.790269 12.695904 223.31701 223.31701 0 0 1 88.063909 82.04722 812.61682 812.61682 0 0 0 93.202228 108.466292 1260.571894 1260.571894 0 0 0 100.53997 90.633068c5.871793 4.916478 11.741588 9.39327 17.613381 14.677484a166.07502 166.07502 0 0 1 46.233877 99.879444 229.848331 229.848331 0 0 1-22.016227 114.77777 134.004995 134.004995 0 0 1-59.443413 62.158468 229.114856 229.114856 0 0 1-117.419877 22.016227 440.323541 440.323541 0 0 1-114.483981-20.254489 374.27486 374.27486 0 0 0-139.435105-9.980849c-21.282752 2.348318-42.564506 8.366006-63.847258 11.595692a661.218286 661.218286 0 0 1-147.508322 7.338743 142.664791 142.664791 0 0 1-104.943815-52.766197 183.908243 183.908243 0 0 1-33.757815-64.94747 211.208685 211.208685 0 0 1-10.274639-67.51563 178.110397 178.110397 0 0 1 22.750701-77.056795 302.061595 302.061595 0 0 1 81.45964-88.57854 199.906782 199.906782 0 0 0 27.887021-22.016227c14.677485-13.943011 30.822918-26.932705 46.233877-41.096557a502.482009 502.482009 0 0 0 74.855372-87.18354c6.605268-9.027532 11.741588-18.714592 18.346855-27.300441A177.15708 177.15708 0 0 1 490.877133 415.502323m-84.395537 163.432913v97.97281h-70.451527a78.157006 78.157006 0 0 0-23.484175 4.183003 120.942354 120.942354 0 0 0-49.904247 29.354969 136.647102 136.647102 0 0 0-35.224764 59.296519 188.971616 188.971616 0 0 0 0 60.984309 120.20788 120.20788 0 0 0 23.483176 53.646566 113.970349 113.970349 0 0 0 66.048681 42.637454 195.723778 195.723778 0 0 0 38.16166 1.834685H473.997226V578.643445h-67.51563M510.690938 681.825523V857.955339a66.92905 66.92905 0 0 0 22.016227 52.104671 84.835222 84.835222 0 0 0 47.701825 19.154277h163.652755V682.119312h-67.51563v190.439564h-71.185001a27.814073 27.814073 0 0 1-20.549278-8.293058 26.49302 26.49302 0 0 1-6.605268-19.226226v-162.993228H510.690938z m0 0l-179.064714 55.554199a37.353239 37.353239 0 0 1 14.677485-4.25695h60.176888q1.101211 69.571157 0 139.436104h-53.57162a55.847989 55.847989 0 0 1-47.701825-23.776965 77.717321 77.717321 0 0 1-13.210536-44.032454 109.199766 109.199766 0 0 1 6.605268-37.574081 64.507785 64.507785 0 0 1 33.02434-29.35497z m0 0" fill="#306CFF" p-id="7830"></path></svg>